<svg
	xmlns="http://www.w3.org/2000/svg" viewBox="0 0 123.8 213.21" version="1.1" id="svg17">
	<defs id="defs4">
		<style id="style2">
      .cls-1{fill:#272423}
    </style>
	</defs>
	<g id="Layer_2" data-name="Layer 2">
		<g id="Layer_1-2" data-name="Layer 1">
			<g id="Group_20" data-name="Group 20">
				<path id="path4" data-name="Path 15" class="cls-1" d="M0 62.71a72.46 72.46 0 014.4-25.92A56.17 56.17 0 0116.9 17 54.51 54.51 0 0136.45 4.4 71 71 0 0162 0a69.88 69.88 0 0125.46 4.4A54.57 54.57 0 01106.9 17a56.06 56.06 0 0112.49 19.78 72.25 72.25 0 014.4 25.92H90.94a70 70 0 00-1.39-14 37.26 37.26 0 00-4.74-12.26 25.36 25.36 0 00-8.91-8.68A27.29 27.29 0 0062 24.53a27.94 27.94 0 00-14 3.24 25 25 0 00-9 8.68 37.26 37.26 0 00-4.74 12.26 70 70 0 00-1.39 14z"/>
				<path id="path6" data-name="Path 16" class="cls-1" d="M123.79 72.54a72.24 72.24 0 01-4.4 25.91 56.06 56.06 0 01-12.49 19.78 54.25 54.25 0 01-19.55 12.61 71 71 0 01-25.56 4.4 70.19 70.19 0 01-25.46-4.4 54.49 54.49 0 01-19.43-12.61A56.08 56.08 0 014.4 98.45 72.45 72.45 0 010 72.54h32.87a70 70 0 001.38 14A37.23 37.23 0 0039 98.8a25.22 25.22 0 008.9 8.67 27.1 27.1 0 0013.89 3.24 27.76 27.76 0 0014-3.24 25 25 0 009-8.67 37.43 37.43 0 004.74-12.26 70 70 0 001.39-14z"/>
				<path id="path8" data-name="Path 17" class="cls-1" d="M123.79 150.5a72.24 72.24 0 01-4.4 25.91 56.19 56.19 0 01-12.49 19.79 54.36 54.36 0 01-19.55 12.6 70.76 70.76 0 01-25.56 4.4 70.19 70.19 0 01-25.46-4.4 54.6 54.6 0 01-19.43-12.6 56.21 56.21 0 01-12.5-19.79A72.45 72.45 0 010 150.5h32.87a70 70 0 001.38 14A37.36 37.36 0 0039 176.76a25.22 25.22 0 008.9 8.67 27.1 27.1 0 0013.89 3.24 27.76 27.76 0 0014-3.24 25.07 25.07 0 009-8.67 37.43 37.43 0 004.74-12.26 70 70 0 001.39-14z"/>
				<path id="rect10" data-name="Rectangle 17" class="cls-1" d="M.01.01h32.85v62.7H.01z"/>
				<path id="close" data-name="Rectangle 18" class="cls-1" d="M32.86 62.7h58.07v9.83H32.86z"/>
			</g>
		</g>
	</g>
	<path id="open" visibility="hidden" d="M85.07 63.1v8.991a75.145 75.309 0 01-1.08 12.787 37.913 37.996 0 01-3.722 11.19 21.282 21.329 0 01-7.06 7.925 19.388 19.43 0 01-10.983 2.963 18.857 18.898 0 01-10.865-2.963 21.365 21.412 0 01-6.978-7.926 37.431 37.513 0 01-3.721-11.189 73.483 73.644 0 01-1.08-12.787V63.1a73.101 73.26 0 011.08-12.77 37.381 37.463 0 013.77-11.156 21.399 21.445 0 017.062-7.926 19.455 19.497 0 0110.965-2.964 19.023 19.064 0 0110.882 2.964 21.598 21.645 0 016.978 7.926 37.381 37.463 0 013.721 11.205 74.762 74.926 0 011.03 12.72z" id="path12" opacity="1" fill="#272423" fill-opacity="1" stroke="none" stroke-width="1.663"/>
</svg>
