<svg xmlns="http://www.w3.org/2000/svg" viewBox="0 0 123.8 213.21"><defs><style>.cls-1{fill:#fffcf5;}</style></defs><title>W_Sublogo</title><g id="Layer_2" data-name="Layer 2"><g id="Layer_1-2" data-name="Layer 1"><g id="Group_20" data-name="Group 20"><path id="Path_15" data-name="Path 15" class="cls-1" d="M0,62.71A72.46,72.46,0,0,1,4.4,36.79,56.17,56.17,0,0,1,16.9,17,54.51,54.51,0,0,1,36.45,4.4,71,71,0,0,1,62,0,69.88,69.88,0,0,1,87.46,4.4,54.57,54.57,0,0,1,106.9,17a56.06,56.06,0,0,1,12.49,19.78,72.25,72.25,0,0,1,4.4,25.92H90.94a70,70,0,0,0-1.39-14,37.26,37.26,0,0,0-4.74-12.26,25.36,25.36,0,0,0-8.91-8.68A27.29,27.29,0,0,0,62,24.53a27.94,27.94,0,0,0-14,3.24,25,25,0,0,0-9,8.68,37.26,37.26,0,0,0-4.74,12.26,70,70,0,0,0-1.39,14Z"/><path id="Path_16" data-name="Path 16" class="cls-1" d="M123.79,72.54a72.24,72.24,0,0,1-4.4,25.91,56.06,56.06,0,0,1-12.49,19.78,54.25,54.25,0,0,1-19.55,12.61,71,71,0,0,1-25.56,4.4,70.19,70.19,0,0,1-25.46-4.4A54.49,54.49,0,0,1,16.9,118.23,56.08,56.08,0,0,1,4.4,98.45,72.45,72.45,0,0,1,0,72.54H32.87a70,70,0,0,0,1.38,14A37.23,37.23,0,0,0,39,98.8a25.22,25.22,0,0,0,8.9,8.67,27.1,27.1,0,0,0,13.89,3.24,27.76,27.76,0,0,0,14-3.24,25,25,0,0,0,9-8.67,37.43,37.43,0,0,0,4.74-12.26,70,70,0,0,0,1.39-14Z"/><path id="Path_17" data-name="Path 17" class="cls-1" d="M123.79,150.5a72.24,72.24,0,0,1-4.4,25.91A56.19,56.19,0,0,1,106.9,196.2a54.36,54.36,0,0,1-19.55,12.6,70.76,70.76,0,0,1-25.56,4.4,70.19,70.19,0,0,1-25.46-4.4A54.6,54.6,0,0,1,16.9,196.2,56.21,56.21,0,0,1,4.4,176.41,72.45,72.45,0,0,1,0,150.5H32.87a70,70,0,0,0,1.38,14A37.36,37.36,0,0,0,39,176.76a25.22,25.22,0,0,0,8.9,8.67,27.1,27.1,0,0,0,13.89,3.24,27.76,27.76,0,0,0,14-3.24,25.07,25.07,0,0,0,9-8.67,37.43,37.43,0,0,0,4.74-12.26,70,70,0,0,0,1.39-14Z"/><rect id="Rectangle_17" data-name="Rectangle 17" class="cls-1" x="0.01" y="0.01" width="32.85" height="62.7"/><rect id="Rectangle_18" data-name="Rectangle 18" class="cls-1" x="32.86" y="62.7" width="58.07" height="9.83"/><rect id="Rectangle_19" data-name="Rectangle 19" class="cls-1" x="32.86" y="62.7" width="58.07" height="9.83"/></g></g></g></svg>