<?xml version="1.0" encoding="UTF-8" standalone="no"?>
<svg
   xmlns:dc="http://purl.org/dc/elements/1.1/"
   xmlns:cc="http://creativecommons.org/ns#"
   xmlns:rdf="http://www.w3.org/1999/02/22-rdf-syntax-ns#"
   xmlns:svg="http://www.w3.org/2000/svg"
   xmlns="http://www.w3.org/2000/svg"
   xmlns:sodipodi="http://sodipodi.sourceforge.net/DTD/sodipodi-0.dtd"
   xmlns:inkscape="http://www.inkscape.org/namespaces/inkscape"
   viewBox="0 0 123.8 213.21"
   version="1.1"
   id="svg17"
   sodipodi:docname="W_Sublogo-move.svg"
   inkscape:version="1.0.1 (3bc2e813f5, 2020-09-07)">
  <metadata
     id="metadata21">
    <rdf:RDF>
      <cc:Work
         rdf:about="">
        <dc:format>image/svg+xml</dc:format>
        <dc:type
           rdf:resource="http://purl.org/dc/dcmitype/StillImage" />
        <dc:title>W_Sublogo</dc:title>
      </cc:Work>
    </rdf:RDF>
  </metadata>
  <sodipodi:namedview
     pagecolor="#ffffff"
     bordercolor="#666666"
     borderopacity="1"
     objecttolerance="10"
     gridtolerance="10"
     guidetolerance="10"
     inkscape:pageopacity="0"
     inkscape:pageshadow="2"
     inkscape:window-width="1920"
     inkscape:window-height="1017"
     id="namedview19"
     showgrid="false"
     showguides="true"
     inkscape:guide-bbox="true"
     inkscape:zoom="3.9866797"
     inkscape:cx="61.900002"
     inkscape:cy="86.538179"
     inkscape:window-x="-8"
     inkscape:window-y="-8"
     inkscape:window-maximized="1"
     inkscape:current-layer="svg17"
     inkscape:document-rotation="0">
    <sodipodi:guide
       position="60.702142,145.48447"
       orientation="0,-1"
       id="guide862" />
    <sodipodi:guide
       position="62.457989,128.42767"
       orientation="1,0"
       id="guide864" />
  </sodipodi:namedview>
  <defs
     id="defs4">
    <style
       id="style2">.cls-1{fill:#fffcf5;}</style>
  </defs>
  <title
     id="title6">W_Sublogo</title>
  <g
     id="Layer_2"
     data-name="Layer 2"
     style="fill:#fffcf5;fill-opacity:1">
    <g
       id="Layer_1-2"
       data-name="Layer 1"
       style="fill:#fffcf5;fill-opacity:1">
      <g
         id="Group_20"
         data-name="Group 20"
         style="fill:#fffcf5;fill-opacity:1">
        <path
           id="Path_15"
           data-name="Path 15"
           class="cls-1"
           d="M0,62.71A72.46,72.46,0,0,1,4.4,36.79,56.17,56.17,0,0,1,16.9,17,54.51,54.51,0,0,1,36.45,4.4,71,71,0,0,1,62,0,69.88,69.88,0,0,1,87.46,4.4,54.57,54.57,0,0,1,106.9,17a56.06,56.06,0,0,1,12.49,19.78,72.25,72.25,0,0,1,4.4,25.92H90.94a70,70,0,0,0-1.39-14,37.26,37.26,0,0,0-4.74-12.26,25.36,25.36,0,0,0-8.91-8.68A27.29,27.29,0,0,0,62,24.53a27.94,27.94,0,0,0-14,3.24,25,25,0,0,0-9,8.68,37.26,37.26,0,0,0-4.74,12.26,70,70,0,0,0-1.39,14Z"
           style="fill:#fffcf5;fill-opacity:1" />
        <path
           id="Path_16"
           data-name="Path 16"
           class="cls-1"
           d="M123.79,72.54a72.24,72.24,0,0,1-4.4,25.91,56.06,56.06,0,0,1-12.49,19.78,54.25,54.25,0,0,1-19.55,12.61,71,71,0,0,1-25.56,4.4,70.19,70.19,0,0,1-25.46-4.4A54.49,54.49,0,0,1,16.9,118.23,56.08,56.08,0,0,1,4.4,98.45,72.45,72.45,0,0,1,0,72.54H32.87a70,70,0,0,0,1.38,14A37.23,37.23,0,0,0,39,98.8a25.22,25.22,0,0,0,8.9,8.67,27.1,27.1,0,0,0,13.89,3.24,27.76,27.76,0,0,0,14-3.24,25,25,0,0,0,9-8.67,37.43,37.43,0,0,0,4.74-12.26,70,70,0,0,0,1.39-14Z"
           style="fill:#fffcf5;fill-opacity:1" />
        <path
           id="Path_17"
           data-name="Path 17"
           class="cls-1"
           d="M123.79,150.5a72.24,72.24,0,0,1-4.4,25.91A56.19,56.19,0,0,1,106.9,196.2a54.36,54.36,0,0,1-19.55,12.6,70.76,70.76,0,0,1-25.56,4.4,70.19,70.19,0,0,1-25.46-4.4A54.6,54.6,0,0,1,16.9,196.2,56.21,56.21,0,0,1,4.4,176.41,72.45,72.45,0,0,1,0,150.5H32.87a70,70,0,0,0,1.38,14A37.36,37.36,0,0,0,39,176.76a25.22,25.22,0,0,0,8.9,8.67,27.1,27.1,0,0,0,13.89,3.24,27.76,27.76,0,0,0,14-3.24,25.07,25.07,0,0,0,9-8.67,37.43,37.43,0,0,0,4.74-12.26,70,70,0,0,0,1.39-14Z"
           style="fill:#fffcf5;fill-opacity:1" />
        <rect
           id="Rectangle_17"
           data-name="Rectangle 17"
           class="cls-1"
           x="0.01"
           y="0.01"
           width="32.85"
           height="62.7"
           style="fill:#fffcf5;fill-opacity:1" />
        <rect
           id="Rectangle_18"
           data-name="Rectangle 18"
           class="cls-1"
           x="32.86"
           y="62.7"
           width="58.07"
           height="9.83"
           style="fill:#fffcf5;fill-opacity:1" />
        <rect
           id="Rectangle_19"
           data-name="Rectangle 19"
           class="cls-1"
           x="32.86"
           y="62.7"
           width="58.07"
           height="9.83"
           style="fill:#fffcf5;fill-opacity:1" />
      </g>
    </g>
  </g>
  <path
     id="path12"
     visibility="hidden"
     d="m 85.302991,63.455741 v 8.991 a 75.145,75.309 0 0 1 -1.08,12.787 37.913,37.996 0 0 1 -3.722,11.19 21.282,21.329 0 0 1 -7.06,7.924999 19.388,19.43 0 0 1 -10.983,2.963 18.857,18.898 0 0 1 -10.865,-2.963 21.365,21.412 0 0 1 -6.978,-7.925999 37.431,37.513 0 0 1 -3.721,-11.189 73.483,73.644 0 0 1 -1.08,-12.787 v -8.991 a 73.101,73.26 0 0 1 1.08,-12.77 37.381,37.463 0 0 1 3.77,-11.156 21.399,21.445 0 0 1 7.062,-7.925999 19.455,19.497 0 0 1 10.965,-2.964 19.023,19.064 0 0 1 10.882,2.964 21.598,21.645 0 0 1 6.978,7.925999 37.381,37.463 0 0 1 3.721,11.205 74.762,74.926 0 0 1 1.03,12.72 z"
     opacity="1"
     fill="#272423"
     fill-opacity="1"
     stroke="none"
     stroke-width="1.663"
     style="fill:#fffcf5;fill-opacity:1" />
</svg>
