<?xml version="1.0" encoding="UTF-8" standalone="no"?>
<svg
   xmlns:dc="http://purl.org/dc/elements/1.1/"
   xmlns:cc="http://creativecommons.org/ns#"
   xmlns:rdf="http://www.w3.org/1999/02/22-rdf-syntax-ns#"
   xmlns:svg="http://www.w3.org/2000/svg"
   xmlns="http://www.w3.org/2000/svg"
   xmlns:sodipodi="http://sodipodi.sourceforge.net/DTD/sodipodi-0.dtd"
   xmlns:inkscape="http://www.inkscape.org/namespaces/inkscape"
   viewBox="0 0 44.39 76.46"
   version="1.1"
   id="svg18"
   sodipodi:docname="pikit.svg"
   inkscape:version="1.0.1 (3bc2e813f5, 2020-09-07)">
  <metadata
     id="metadata24">
    <rdf:RDF>
      <cc:Work
         rdf:about="">
        <dc:format>image/svg+xml</dc:format>
        <dc:type
           rdf:resource="http://purl.org/dc/dcmitype/StillImage" />
      </cc:Work>
    </rdf:RDF>
  </metadata>
  <defs
     id="defs22" />
  <sodipodi:namedview
     pagecolor="#ffffff"
     bordercolor="#666666"
     borderopacity="1"
     objecttolerance="10"
     gridtolerance="10"
     guidetolerance="10"
     inkscape:pageopacity="0"
     inkscape:pageshadow="2"
     inkscape:window-width="1920"
     inkscape:window-height="1017"
     id="namedview20"
     showgrid="false"
     inkscape:zoom="5.558462"
     inkscape:cx="-1.6111749"
     inkscape:cy="39.73283"
     inkscape:window-x="-8"
     inkscape:window-y="-8"
     inkscape:window-maximized="1"
     inkscape:current-layer="g861"
     inkscape:document-rotation="0" />
  <title
     id="title2">Asset 1Nikka Ella</title>
  <g
     id="Layer_2"
     data-name="Layer 2"
     style="fill:#272423;fill-opacity:1">
    <g
       id="Layer_1-2"
       data-name="Layer 1"
       style="fill:#272423;fill-opacity:1">
      <path
         d="M0,22.49a26.07,26.07,0,0,1,1.58-9.3A20.09,20.09,0,0,1,6.06,6.1a19.35,19.35,0,0,1,7-4.52A25.42,25.42,0,0,1,22.24,0a25.13,25.13,0,0,1,9.13,1.58,19.54,19.54,0,0,1,7,4.52,20.23,20.23,0,0,1,4.48,7.09,26.07,26.07,0,0,1,1.57,9.3H32.61a25.21,25.21,0,0,0-.5-5,13.32,13.32,0,0,0-1.7-4.4A9,9,0,0,0,27.22,10a9.71,9.71,0,0,0-5-1.16,9.92,9.92,0,0,0-5,1.16A8.87,8.87,0,0,0,14,13.07a13.32,13.32,0,0,0-1.7,4.4,25.21,25.21,0,0,0-.5,5Z"
         id="path4"
         style="fill:#272423;fill-opacity:1" />
      <path
         d="M44.39,26a26.07,26.07,0,0,1-1.57,9.3,20.23,20.23,0,0,1-4.48,7.09,19.61,19.61,0,0,1-7,4.52,25.37,25.37,0,0,1-9.16,1.58A25.09,25.09,0,0,1,13,46.92a19.58,19.58,0,0,1-7-4.52,20.09,20.09,0,0,1-4.48-7.09A25.85,25.85,0,0,1,0,26H11.78a25.21,25.21,0,0,0,.5,5,13.41,13.41,0,0,0,1.7,4.4,9,9,0,0,0,3.2,3.11,9.66,9.66,0,0,0,5,1.16,9.94,9.94,0,0,0,5-1.16,8.92,8.92,0,0,0,3.23-3.11,13.41,13.41,0,0,0,1.7-4.4,25.21,25.21,0,0,0,.5-5Z"
         id="path6"
         style="fill:#272423;fill-opacity:1" />
      <path
         d="M44.39,54a26.07,26.07,0,0,1-1.57,9.3,20.23,20.23,0,0,1-4.48,7.09,19.61,19.61,0,0,1-7,4.52,25.37,25.37,0,0,1-9.16,1.58A25.09,25.09,0,0,1,13,74.88a19.58,19.58,0,0,1-7-4.52,20.09,20.09,0,0,1-4.48-7.09A25.85,25.85,0,0,1,0,54H11.78a25.21,25.21,0,0,0,.5,5,13.41,13.41,0,0,0,1.7,4.4,9,9,0,0,0,3.2,3.11,9.66,9.66,0,0,0,5,1.16,9.94,9.94,0,0,0,5-1.16,8.92,8.92,0,0,0,3.23-3.11,13.41,13.41,0,0,0,1.7-4.4,25.21,25.21,0,0,0,.5-5Z"
         id="path8"
         style="fill:#272423;fill-opacity:1" />
      <rect
         width="11.78"
         height="22.49"
         id="rect10"
         style="fill:#272423;fill-opacity:1" />
      <rect
         x="11.78"
         y="22.48"
         width="20.83"
         height="3.53"
         id="rect12"
         style="fill:#272423;fill-opacity:1" />
      <rect
         x="11.78"
         y="22.48"
         width="20.83"
         height="3.53"
         id="rect14"
         style="fill:#272423;fill-opacity:1" />
    </g>
  </g>
  <g
     id="g863"
     data-name="Layer 2">
    <g
       id="g861"
       data-name="Layer 1">
      <path
         d="M0,22.49a26.07,26.07,0,0,1,1.58-9.3A20.09,20.09,0,0,1,6.06,6.1a19.35,19.35,0,0,1,7-4.52A25.42,25.42,0,0,1,22.24,0a25.13,25.13,0,0,1,9.13,1.58,19.54,19.54,0,0,1,7,4.52,20.23,20.23,0,0,1,4.48,7.09,26.07,26.07,0,0,1,1.57,9.3H32.61a25.21,25.21,0,0,0-.5-5,13.32,13.32,0,0,0-1.7-4.4A9,9,0,0,0,27.22,10a9.71,9.71,0,0,0-5-1.16,9.92,9.92,0,0,0-5,1.16A8.87,8.87,0,0,0,14,13.07a13.32,13.32,0,0,0-1.7,4.4,25.21,25.21,0,0,0-.5,5Z"
         id="path849"
         style="fill:#272423;fill-opacity:1" />
      <path
         d="M44.39,26a26.07,26.07,0,0,1-1.57,9.3,20.23,20.23,0,0,1-4.48,7.09,19.61,19.61,0,0,1-7,4.52,25.37,25.37,0,0,1-9.16,1.58A25.09,25.09,0,0,1,13,46.92a19.58,19.58,0,0,1-7-4.52,20.09,20.09,0,0,1-4.48-7.09A25.85,25.85,0,0,1,0,26H11.78a25.21,25.21,0,0,0,.5,5,13.41,13.41,0,0,0,1.7,4.4,9,9,0,0,0,3.2,3.11,9.66,9.66,0,0,0,5,1.16,9.94,9.94,0,0,0,5-1.16,8.92,8.92,0,0,0,3.23-3.11,13.41,13.41,0,0,0,1.7-4.4,25.21,25.21,0,0,0,.5-5Z"
         id="path851"
         style="fill:#272423;fill-opacity:1" />
      <path
         d="M44.39,54a26.07,26.07,0,0,1-1.57,9.3,20.23,20.23,0,0,1-4.48,7.09,19.61,19.61,0,0,1-7,4.52,25.37,25.37,0,0,1-9.16,1.58A25.09,25.09,0,0,1,13,74.88a19.58,19.58,0,0,1-7-4.52,20.09,20.09,0,0,1-4.48-7.09A25.85,25.85,0,0,1,0,54H11.78a25.21,25.21,0,0,0,.5,5,13.41,13.41,0,0,0,1.7,4.4,9,9,0,0,0,3.2,3.11,9.66,9.66,0,0,0,5,1.16,9.94,9.94,0,0,0,5-1.16,8.92,8.92,0,0,0,3.23-3.11,13.41,13.41,0,0,0,1.7-4.4,25.21,25.21,0,0,0,.5-5Z"
         id="path853"
         style="fill:#272423;fill-opacity:1" />
      <rect
         width="11.78"
         height="22.49"
         id="rect855"
         style="fill:#272423;fill-opacity:1" />
      <rect
         x="11.78"
         y="22.48"
         width="20.83"
         height="3.53"
         id="rect857"
         style="fill:#272423;fill-opacity:1" />
      <rect
         x="11.78"
         y="22.48"
         width="20.83"
         height="3.53"
         id="rect859"
         style="fill:#272423;fill-opacity:1" />
    </g>
  </g>
</svg>
