<svg xmlns="http://www.w3.org/2000/svg" viewBox="0 0 400.27 214.74"><defs><style>.cls-1{fill:none;stroke:#272423;stroke-miterlimit:10;stroke-width:2px;}.cls-2{fill:#272423;}.cls-3{fill:#2e2c2b;}</style></defs><title>B_PrimaryLogo</title><g id="Layer_2" data-name="Layer 2"><g id="Layer_1-2" data-name="Layer 1"><line id="Line_2" data-name="Line 2" class="cls-1" x1="141.16" y1="1.9" x2="141.16" y2="213.64"/><g id="Group_21" data-name="Group 21"><g id="Group_20" data-name="Group 20"><path id="Path_15" data-name="Path 15" class="cls-2" d="M0,63.87A72.45,72.45,0,0,1,4.4,38,56.08,56.08,0,0,1,16.9,18.18,54.25,54.25,0,0,1,36.45,5.57,71.19,71.19,0,0,1,62,1.17a70.1,70.1,0,0,1,25.45,4.4A54.44,54.44,0,0,1,106.9,18.18,56.06,56.06,0,0,1,119.39,38a72.24,72.24,0,0,1,4.4,25.91H90.94a69.88,69.88,0,0,0-1.39-14,37.4,37.4,0,0,0-4.74-12.27,25.42,25.42,0,0,0-8.91-8.67A27.19,27.19,0,0,0,62,25.7a27.84,27.84,0,0,0-14,3.24,25,25,0,0,0-9,8.67,37.4,37.4,0,0,0-4.74,12.27,69.88,69.88,0,0,0-1.39,14Z"/><path id="Path_16" data-name="Path 16" class="cls-2" d="M123.79,73.71a72.24,72.24,0,0,1-4.4,25.91A56.06,56.06,0,0,1,106.9,119.4,54.51,54.51,0,0,1,87.35,132a71.19,71.19,0,0,1-25.56,4.4A70.19,70.19,0,0,1,36.33,132,54.62,54.62,0,0,1,16.9,119.4,56.08,56.08,0,0,1,4.4,99.62,72.45,72.45,0,0,1,0,73.71H32.87a69.87,69.87,0,0,0,1.38,14A37.2,37.2,0,0,0,39,100a25.31,25.31,0,0,0,8.9,8.67,27.2,27.2,0,0,0,13.89,3.24,27.86,27.86,0,0,0,14-3.24,25,25,0,0,0,9-8.67A37.4,37.4,0,0,0,89.55,87.7a69.88,69.88,0,0,0,1.39-14Z"/><path id="Path_17" data-name="Path 17" class="cls-2" d="M123.79,151.67a72.24,72.24,0,0,1-4.4,25.91,56.06,56.06,0,0,1-12.49,19.78A54.25,54.25,0,0,1,87.35,210a71.19,71.19,0,0,1-25.56,4.4A70.19,70.19,0,0,1,36.33,210,54.49,54.49,0,0,1,16.9,197.36,56.08,56.08,0,0,1,4.4,177.58,72.45,72.45,0,0,1,0,151.67H32.87a69.87,69.87,0,0,0,1.38,14A37.42,37.42,0,0,0,39,177.93a25.31,25.31,0,0,0,8.9,8.67,27.2,27.2,0,0,0,13.89,3.24,27.86,27.86,0,0,0,14-3.24,25.07,25.07,0,0,0,9-8.67,37.4,37.4,0,0,0,4.74-12.27,69.88,69.88,0,0,0,1.39-14Z"/><rect id="Rectangle_17" data-name="Rectangle 17" class="cls-2" x="0.01" y="1.17" width="32.85" height="62.7"/><rect id="Rectangle_18" data-name="Rectangle 18" class="cls-2" x="32.86" y="63.87" width="58.07" height="9.83"/><rect id="Rectangle_19" data-name="Rectangle 19" class="cls-2" x="32.86" y="63.87" width="58.07" height="9.83"/></g></g><g id="Group_23" data-name="Group 23"><path id="Path_20" data-name="Path 20" class="cls-2" d="M191.15,18q4,3.29,4,10.93V56.17H184.27V31.51a11.48,11.48,0,0,0-.85-4.91,6,6,0,0,0-5.92-3.12,7.32,7.32,0,0,0-7.35,4.57,15.89,15.89,0,0,0-1,6.18V56.17h-10.6V15.7h10.27v5.92a17.7,17.7,0,0,1,3.85-4.51,13.35,13.35,0,0,1,8.27-2.44A15.54,15.54,0,0,1,191.15,18Z"/><path id="Path_25" data-name="Path 25" class="cls-2" d="M188.43,84.15a16.46,16.46,0,0,1,7,6,20,20,0,0,1,3.23,8.38,52.8,52.8,0,0,1,.35,8H169.49a9.73,9.73,0,0,0,4.24,8.55,10.72,10.72,0,0,0,5.84,1.53,8.24,8.24,0,0,0,8.07-4.66h10.83a13.28,13.28,0,0,1-3.93,7.33,19.73,19.73,0,0,1-15.26,5.92,22.1,22.1,0,0,1-14.28-5q-6.18-5-6.19-16.23,0-10.53,5.59-16.16a19.49,19.49,0,0,1,14.5-5.62A23,23,0,0,1,188.43,84.15Zm-15.86,9.16a11,11,0,0,0-2.82,6.27H188a8.83,8.83,0,0,0-2.82-6.4A9.3,9.3,0,0,0,178.9,91a8.4,8.4,0,0,0-6.32,2.32Z"/><path id="Path_21" data-name="Path 21" class="cls-1" d="M215.88,10.79H205.13V1h10.75Zm-10.75,4.84h10.75V56.17H205.13Z"/><path id="Path_22" data-name="Path 22" class="cls-1" d="M226,1.53h10.41V31.11l13.37-15.29H263l-14.53,15.1,15.09,25.26h-12.9l-9.82-17.33-4.39,4.56V56.16H226Z"/><path id="Path_23" data-name="Path 23" class="cls-1" d="M268.41,1.53h10.42V31.11L292.2,15.82h13.18l-14.53,15.1L306,56.18H293l-9.83-17.33-4.39,4.56V56.16H268.41Z"/><path id="Path_24" data-name="Path 24" class="cls-1" d="M326.94,31.51a16.65,16.65,0,0,0,4.24-.92,3.2,3.2,0,0,0,2.27-3,3.55,3.55,0,0,0-1.75-3.44,11.23,11.23,0,0,0-5.15-.95A6.8,6.8,0,0,0,321.16,25a7.81,7.81,0,0,0-1.51,3.72H309.42a15.54,15.54,0,0,1,3-8.74q4.23-5.35,14.5-5.36a25.9,25.9,0,0,1,11.88,2.65Q344,20,344,27.28V45.86c0,1.29,0,2.85.07,4.69a5.87,5.87,0,0,0,.64,2.82,3.76,3.76,0,0,0,1.56,1.23v1.56H334.72a11.45,11.45,0,0,1-.67-2.3,24.37,24.37,0,0,1-.3-2.46,21.72,21.72,0,0,1-5.09,4.06,15.45,15.45,0,0,1-7.78,2,13.5,13.5,0,0,1-9.15-3.14,11.2,11.2,0,0,1-3.61-8.91,11.55,11.55,0,0,1,5.81-10.83A26,26,0,0,1,323.3,32Zm6.48,4.95a10.89,10.89,0,0,1-2.05,1,16.22,16.22,0,0,1-2.84.73l-2.41.46a15.44,15.44,0,0,0-4.88,1.45,4.83,4.83,0,0,0-2.5,4.5,4.69,4.69,0,0,0,1.53,3.92A5.81,5.81,0,0,0,324,49.75a11,11,0,0,0,6.4-2,8.5,8.5,0,0,0,3-7.33Z"/><path id="Path_26" data-name="Path 26" class="cls-1" d="M215.21,123.87H204.6V69h10.61Z"/><path id="Path_27" data-name="Path 27" class="cls-1" d="M236.37,123.87h-10.6V69h10.6Z"/><path id="Path_28" data-name="Path 28" class="cls-1" d="M262.77,99.21a17,17,0,0,0,4.23-.93,3.19,3.19,0,0,0,2.28-3,3.56,3.56,0,0,0-1.75-3.44,11.12,11.12,0,0,0-5.15-1A6.72,6.72,0,0,0,257,92.74a7.57,7.57,0,0,0-1.51,3.72H245.25a15.54,15.54,0,0,1,3-8.74q4.22-5.35,14.49-5.36A25.83,25.83,0,0,1,274.61,85q5.2,2.64,5.2,10v18.6c0,1.29,0,2.85.07,4.69a5.86,5.86,0,0,0,.63,2.82,3.77,3.77,0,0,0,1.57,1.23v1.56H270.54a12.14,12.14,0,0,1-.67-2.3c-.12-.72-.22-1.54-.29-2.46a21.92,21.92,0,0,1-5.09,4.06,15.49,15.49,0,0,1-7.79,2,13.47,13.47,0,0,1-9.14-3.14,11.17,11.17,0,0,1-3.61-8.91,11.52,11.52,0,0,1,5.8-10.82,25.77,25.77,0,0,1,9.37-2.61Zm6.48,5a11.87,11.87,0,0,1-2.05,1,18.49,18.49,0,0,1-2.84.73l-2.42.45a16,16,0,0,0-4.87,1.45,4.85,4.85,0,0,0-2.5,4.5,4.71,4.71,0,0,0,1.53,3.93,5.79,5.79,0,0,0,3.72,1.21,11.19,11.19,0,0,0,6.4-2,8.5,8.5,0,0,0,3-7.33Z"/><path id="Path_29" data-name="Path 29" class="cls-2" d="M195.17,196a21.5,21.5,0,0,1-1.31,7.74,16.54,16.54,0,0,1-3.73,5.9,16.25,16.25,0,0,1-5.83,3.76,22.76,22.76,0,0,1-15.22,0,16.34,16.34,0,0,1-5.79-3.77,16.54,16.54,0,0,1-3.73-5.9,21.5,21.5,0,0,1-1.31-7.74h9.8a21,21,0,0,0,.42,4.18,11.26,11.26,0,0,0,1.41,3.66,7.47,7.47,0,0,0,2.66,2.58,8.08,8.08,0,0,0,4.14,1,8.25,8.25,0,0,0,4.18-1,7.48,7.48,0,0,0,2.69-2.58A11.26,11.26,0,0,0,185,200.2a21,21,0,0,0,.42-4.18Z"/><path id="Path_30" data-name="Path 30" class="cls-2" d="M195.17,151.53v21.58a21.42,21.42,0,0,1-1.3,7.39,16.91,16.91,0,0,1-3.73,5.9,16.21,16.21,0,0,1-5.84,3.76,22.6,22.6,0,0,1-15.22,0,16.27,16.27,0,0,1-5.8-3.76,16.63,16.63,0,0,1-3.73-5.9,21.43,21.43,0,0,1-1.31-7.39V151.53h9.82v21.58h0a20.59,20.59,0,0,0,.41,3.83,11.06,11.06,0,0,0,1.42,3.66,7.55,7.55,0,0,0,2.65,2.59,8.19,8.19,0,0,0,4.15,1,8.34,8.34,0,0,0,4.18-1,7.48,7.48,0,0,0,2.68-2.59,11.06,11.06,0,0,0,1.42-3.66,20.94,20.94,0,0,0,.42-4.18h0V151.53Z"/><path id="Path_31" data-name="Path 31" class="cls-3" d="M195.24,81.54v.34h0Z"/><g id="Group_22" data-name="Group 22"><path id="Path_32" data-name="Path 32" class="cls-1" d="M222.05,168.19a16.57,16.57,0,0,0,4.23-.92,3.19,3.19,0,0,0,2.28-3,3.59,3.59,0,0,0-1.75-3.44,11.12,11.12,0,0,0-5.15-.95,6.79,6.79,0,0,0-5.39,1.86,7.61,7.61,0,0,0-1.51,3.72H204.53a15.54,15.54,0,0,1,3-8.74q4.22-5.35,14.49-5.36A25.84,25.84,0,0,1,233.89,154q5.19,2.64,5.2,10v18.6c0,1.29,0,2.86.07,4.69a5.92,5.92,0,0,0,.63,2.83,3.94,3.94,0,0,0,1.57,1.23v1.56H229.83a11.09,11.09,0,0,1-.67-2.31,24.51,24.51,0,0,1-.3-2.45,22.15,22.15,0,0,1-5.09,4.05,15.25,15.25,0,0,1-7.78,2,13.38,13.38,0,0,1-9.15-3.14,11.19,11.19,0,0,1-3.61-8.91A11.52,11.52,0,0,1,209,171.25a26,26,0,0,1,9.37-2.61Zm6.48,4.95a11.19,11.19,0,0,1-2.05,1,16.56,16.56,0,0,1-2.85.73l-2.41.46a15.39,15.39,0,0,0-4.87,1.45,4.85,4.85,0,0,0-2.51,4.5,4.72,4.72,0,0,0,1.53,3.92,5.83,5.83,0,0,0,3.72,1.21,11,11,0,0,0,6.41-2,8.52,8.52,0,0,0,3-7.33Z"/><path id="Path_33" data-name="Path 33" class="cls-1" d="M259.18,192.86h-10.6V138h10.6Z"/><path id="Path_34" data-name="Path 34" class="cls-1" d="M280.08,152.31v24.44a12.87,12.87,0,0,0,.82,5.21,5.63,5.63,0,0,0,5.66,3.08,7.4,7.4,0,0,0,7.4-4.39,16,16,0,0,0,1-6.28V152.31h10.74v40.55h-10.3v-5.73c-.1.12-.34.49-.74,1.11a7.37,7.37,0,0,1-1.41,1.64,14.69,14.69,0,0,1-4.8,3.05,16.22,16.22,0,0,1-5.44.82q-9,0-12.09-6.47a24.76,24.76,0,0,1-1.74-10.53V152.31Z"/><path id="Path_35" data-name="Path 35" class="cls-1" d="M348.74,154.64q4,3.29,4,10.93v27.3H341.86V168.19a11.18,11.18,0,0,0-.85-4.91,5.94,5.94,0,0,0-5.9-3.12,7.32,7.32,0,0,0-7.35,4.57,15.89,15.89,0,0,0-1,6.18v21.94h-10.6V152.39h10.27v5.92a17.88,17.88,0,0,1,3.85-4.5,13.33,13.33,0,0,1,8.26-2.46A15.52,15.52,0,0,1,348.74,154.64Z"/><path id="Path_36" data-name="Path 36" class="cls-1" d="M382.64,152.27a12.74,12.74,0,0,1,6.24,5.88v-5.84h10.34v38.46a21.52,21.52,0,0,1-2.64,11.84q-4.53,6.84-17.41,6.84a23.63,23.63,0,0,1-12.68-3,11.24,11.24,0,0,1-5.43-9.1h11.53A4.8,4.8,0,0,0,374,200a8.93,8.93,0,0,0,5.77,1.45c3.82,0,6.37-1.27,7.66-3.83a19.34,19.34,0,0,0,1.27-8.25v-2.62a11.88,11.88,0,0,1-11.5,6.32,15.57,15.57,0,0,1-12.48-5.49,22.12,22.12,0,0,1-4.66-14.86,25,25,0,0,1,4.49-15.19,14.83,14.83,0,0,1,12.75-6.15A13.9,13.9,0,0,1,382.64,152.27Zm3.61,29.07a13,13,0,0,0,2.56-8.94,13.71,13.71,0,0,0-2.43-8.78,7.88,7.88,0,0,0-6.5-3,7.64,7.64,0,0,0-7.66,5.23,18.57,18.57,0,0,0-1.11,6.88,15.74,15.74,0,0,0,1.18,6.29,7.73,7.73,0,0,0,7.71,5.13,8.11,8.11,0,0,0,6.25-2.8Z"/></g><path id="Path_37" data-name="Path 37" class="cls-2" d="M195.18,173.74V196h-9.81V173.74Z"/></g></g></g></svg>