<?xml version="1.0" encoding="UTF-8" standalone="no"?>
<svg
   xmlns:dc="http://purl.org/dc/elements/1.1/"
   xmlns:cc="http://creativecommons.org/ns#"
   xmlns:rdf="http://www.w3.org/1999/02/22-rdf-syntax-ns#"
   xmlns:svg="http://www.w3.org/2000/svg"
   xmlns="http://www.w3.org/2000/svg"
   xmlns:sodipodi="http://sodipodi.sourceforge.net/DTD/sodipodi-0.dtd"
   xmlns:inkscape="http://www.inkscape.org/namespaces/inkscape"
   viewBox="0 0 123.8 213.21"
   version="1.1"
   id="svg17"
   sodipodi:docname="B_Sublogo.svg"
   inkscape:version="1.0.1 (3bc2e813f5, 2020-09-07)">
  <metadata
     id="metadata21">
    <rdf:RDF>
      <cc:Work
         rdf:about="">
        <dc:format>image/svg+xml</dc:format>
        <dc:type
           rdf:resource="http://purl.org/dc/dcmitype/StillImage" />
      </cc:Work>
    </rdf:RDF>
  </metadata>
  <sodipodi:namedview
     pagecolor="#ffffff"
     bordercolor="#666666"
     borderopacity="1"
     objecttolerance="10"
     gridtolerance="10"
     guidetolerance="10"
     inkscape:pageopacity="0"
     inkscape:pageshadow="2"
     inkscape:window-width="1920"
     inkscape:window-height="1017"
     id="namedview19"
     showgrid="false"
     showguides="true"
     inkscape:guide-bbox="true"
     inkscape:zoom="3.9866797"
     inkscape:cx="61.900002"
     inkscape:cy="86.538179"
     inkscape:window-x="-8"
     inkscape:window-y="-8"
     inkscape:window-maximized="1"
     inkscape:current-layer="svg17">
    <sodipodi:guide
       position="62.457989,177.84222"
       orientation="1,0"
       id="guide852" />
  </sodipodi:namedview>
  <defs
     id="defs4">
    <style
       id="style2">.cls-1{fill:#272423;}</style>
  </defs>
  <title
     id="title6">B_Sublogo</title>
  <g
     id="Layer_2"
     data-name="Layer 2">
    <g
       id="Layer_1-2"
       data-name="Layer 1">
      <g
         id="Group_20"
         data-name="Group 20">
        <path
           id="Path_15"
           data-name="Path 15"
           class="cls-1"
           d="M0,62.71A72.46,72.46,0,0,1,4.4,36.79,56.17,56.17,0,0,1,16.9,17,54.51,54.51,0,0,1,36.45,4.4,71,71,0,0,1,62,0,69.88,69.88,0,0,1,87.46,4.4,54.57,54.57,0,0,1,106.9,17a56.06,56.06,0,0,1,12.49,19.78,72.25,72.25,0,0,1,4.4,25.92H90.94a70,70,0,0,0-1.39-14,37.26,37.26,0,0,0-4.74-12.26,25.36,25.36,0,0,0-8.91-8.68A27.29,27.29,0,0,0,62,24.53a27.94,27.94,0,0,0-14,3.24,25,25,0,0,0-9,8.68,37.26,37.26,0,0,0-4.74,12.26,70,70,0,0,0-1.39,14Z" />
        <path
           id="Path_16"
           data-name="Path 16"
           class="cls-1"
           d="M123.79,72.54a72.24,72.24,0,0,1-4.4,25.91,56.06,56.06,0,0,1-12.49,19.78,54.25,54.25,0,0,1-19.55,12.61,71,71,0,0,1-25.56,4.4,70.19,70.19,0,0,1-25.46-4.4A54.49,54.49,0,0,1,16.9,118.23,56.08,56.08,0,0,1,4.4,98.45,72.45,72.45,0,0,1,0,72.54H32.87a70,70,0,0,0,1.38,14A37.23,37.23,0,0,0,39,98.8a25.22,25.22,0,0,0,8.9,8.67,27.1,27.1,0,0,0,13.89,3.24,27.76,27.76,0,0,0,14-3.24,25,25,0,0,0,9-8.67,37.43,37.43,0,0,0,4.74-12.26,70,70,0,0,0,1.39-14Z" />
        <path
           id="Path_17"
           data-name="Path 17"
           class="cls-1"
           d="M123.79,150.5a72.24,72.24,0,0,1-4.4,25.91A56.19,56.19,0,0,1,106.9,196.2a54.36,54.36,0,0,1-19.55,12.6,70.76,70.76,0,0,1-25.56,4.4,70.19,70.19,0,0,1-25.46-4.4A54.6,54.6,0,0,1,16.9,196.2,56.21,56.21,0,0,1,4.4,176.41,72.45,72.45,0,0,1,0,150.5H32.87a70,70,0,0,0,1.38,14A37.36,37.36,0,0,0,39,176.76a25.22,25.22,0,0,0,8.9,8.67,27.1,27.1,0,0,0,13.89,3.24,27.76,27.76,0,0,0,14-3.24,25.07,25.07,0,0,0,9-8.67,37.43,37.43,0,0,0,4.74-12.26,70,70,0,0,0,1.39-14Z" />
        <rect
           id="Rectangle_17"
           data-name="Rectangle 17"
           class="cls-1"
           x="0.01"
           y="0.01"
           width="32.85"
           height="62.7" />
        <rect
           id="Rectangle_18"
           data-name="Rectangle 18"
           class="cls-1"
           x="32.86"
           y="62.7"
           width="58.07"
           height="9.83" />
        <rect
           id="Rectangle_19"
           data-name="Rectangle 19"
           class="cls-1"
           x="32.86"
           y="62.7"
           width="58.07"
           height="9.83" />
      </g>
    </g>
  </g>
  <path
     d="m 85.069441,63.099885 v 8.991108 a 75.14461,75.308755 0 0 1 -1.079904,12.787285 37.912889,37.995707 0 0 1 -3.721526,11.188954 21.282389,21.328879 0 0 1 -7.060846,7.925478 19.388406,19.430758 0 0 1 -10.981784,2.96371 18.856761,18.897952 0 0 1 -10.865454,-2.96371 21.365457,21.412129 0 0 1 -6.977896,-7.925478 37.431088,37.51285 0 0 1 -3.721445,-11.188954 73.483218,73.643736 0 0 1 -1.079904,-12.787285 v -8.991108 a 73.101098,73.260787 0 0 1 1.079904,-12.770666 37.381243,37.462902 0 0 1 3.771284,-11.155648 21.398686,21.445429 0 0 1 7.060917,-7.925481 19.454861,19.497358 0 0 1 10.965204,-2.963715 19.0229,19.064454 0 0 1 10.882045,2.963715 21.598052,21.645232 0 0 1 6.977885,7.925481 37.381243,37.462902 0 0 1 3.721456,11.205566 74.762489,74.925799 0 0 1 1.030064,12.720748 z"
     id="path12"
     style="opacity:1;fill:#272423;fill-opacity:1;stroke:none;stroke-width:1.6632" />
</svg>
